<svg width="54" height="55" viewBox="0 0 54 55" fill="none" xmlns="http://www.w3.org/2000/svg">
<path d="M49.0524 54.1663L53.2722 41.498L23.4012 11.6294L49.0524 54.1663Z" fill="#86FF8A"/>
<path d="M49.0524 54.1663L53.2722 41.498L23.4012 11.6294L49.0524 54.1663Z" fill="url(#paint0_linear_38_5)"/>
<path d="M29.5693 41.43L13.1405 0.713074L8.56098 20.6909L29.5693 41.43Z" fill="#00CE8D"/>
<path d="M29.5693 41.43L13.1405 0.713074L8.56098 20.6909L29.5693 41.43Z" fill="url(#paint1_linear_38_5)" fill-opacity="0.5"/>
<path fill-rule="evenodd" clip-rule="evenodd" d="M14.3247 42.7493L29.5693 41.43L13.1405 0.713074L23.4012 11.6294L49.0524 54.1663L0.076416 54.235L7.80177 24.2731L6.80866 43.3997L14.3247 42.7493Z" fill="#20FB98"/>
<path fill-rule="evenodd" clip-rule="evenodd" d="M14.3247 42.7493L29.5693 41.43L13.1405 0.713074L23.4012 11.6294L49.0524 54.1663L0.076416 54.235L7.80177 24.2731L6.80866 43.3997L14.3247 42.7493Z" fill="url(#paint2_linear_38_5)" fill-opacity="0.3"/>
<path d="M6.80866 43.3997L14.3247 42.7493L7.80177 24.2731L6.80866 43.3997Z" fill="#86FF8A"/>
<path d="M6.80866 43.3997L14.3247 42.7493L7.80177 24.2731L6.80866 43.3997Z" fill="url(#paint3_linear_38_5)" fill-opacity="0.2"/>
<path d="M6.80866 43.3997L14.3247 42.7493L7.80177 24.2731L6.80866 43.3997Z" fill="url(#paint4_linear_38_5)" fill-opacity="0.5"/>
<path d="M8.56098 20.6909L29.5693 0.713081L13.1405 0.713074L8.56098 20.6909Z" fill="#86FF8A"/>
<path d="M8.56098 20.6909L29.5693 0.713081L13.1405 0.713074L8.56098 20.6909Z" fill="url(#paint5_linear_38_5)" fill-opacity="0.5"/>
<defs>
<linearGradient id="paint0_linear_38_5" x1="32.5426" y1="35.2793" x2="35.6897" y2="49.1153" gradientUnits="userSpaceOnUse">
<stop stop-color="#E2FF04" stop-opacity="0"/>
<stop offset="1" stop-color="#F0FF80"/>
</linearGradient>
<linearGradient id="paint1_linear_38_5" x1="47.1084" y1="-8.07073" x2="-0.894202" y2="36.1508" gradientUnits="userSpaceOnUse">
<stop stop-color="#0010A3" stop-opacity="0"/>
<stop offset="1" stop-color="#0010A3"/>
</linearGradient>
<linearGradient id="paint2_linear_38_5" x1="15.0534" y1="-20.0103" x2="34.0889" y2="57.6617" gradientUnits="userSpaceOnUse">
<stop stop-opacity="0"/>
<stop offset="1" stop-color="#0010A3"/>
</linearGradient>
<linearGradient id="paint3_linear_38_5" x1="21.2633" y1="47.6563" x2="24.5325" y2="56.0976" gradientUnits="userSpaceOnUse">
<stop stop-color="#0010A3" stop-opacity="0"/>
<stop offset="1" stop-color="#0010A3"/>
</linearGradient>
<linearGradient id="paint4_linear_38_5" x1="16.2333" y1="47.8793" x2="15.2923" y2="44.0203" gradientUnits="userSpaceOnUse">
<stop stop-color="white" stop-opacity="0"/>
<stop offset="1" stop-color="#EFFF85"/>
</linearGradient>
<linearGradient id="paint5_linear_38_5" x1="47.1084" y1="0.0758166" x2="5.31221" y2="44.3715" gradientUnits="userSpaceOnUse">
<stop offset="0.341346" stop-color="#0010A3" stop-opacity="0"/>
<stop offset="1" stop-color="#0010A3"/>
</linearGradient>
</defs>
</svg>
